<?xml version="1.0" encoding="utf-8"?>
<!-- Generator: Adobe Illustrator 13.0.0, SVG Export Plug-In . SVG Version: 6.00 Build 14948)  -->
<!DOCTYPE svg PUBLIC "-//W3C//DTD SVG 1.1 Basic//EN" "http://www.w3.org/Graphics/SVG/1.1/DTD/svg11-basic.dtd">
<svg version="1.1" baseProfile="basic" id="Layer_1"
	 xmlns="http://www.w3.org/2000/svg" xmlns:xlink="http://www.w3.org/1999/xlink" x="300px" y="200px" viewBox="0 0 171 75"
	  xml:space="preserve">
<path fill="transparent" d="M66.383,4.753c0.355,0.414-4.634,2.813-6.916,3.458C60.123,5.409,62.856,4.681,66.383,4.753z"/>
<path fill="transparent" d="M70.709,7.347c0,1.152,0,2.305,0,3.458c-2.243,1.987-5.721-0.032-7.78-0.864
	C63.504,6.579,67.646,5.825,70.709,7.347z"/>
<path d="M54.28,33.278"/>
<path d="M52.555,55.755c1.148,0,2.306,0,3.458,0C56.689,59.083,51.871,59.083,52.555,55.755z"/>
<path fill="transparent" d="M28.348,56.619c1.552-0.107,1.826,1.06,3.457,0.864c0.11,1.553-1.056,1.822-0.86,3.457
	C28.513,61.067,28.448,58.824,28.348,56.619z"/>
<path d="M4.143,69.128"/>
<path fill="transparent" d="M46.5,13.397c-6.627,2.19,1.149,7.092-2.593,9.514c-2.263,1.009-3.718-2.67-3.458,0.859
	c3.06-0.464,4.452,0.735,5.188,2.598c-0.994,1.888-2.986,2.777-5.188,3.457c-1.675-7.43-13.366-7.652-17.289-2.596
	c2.138-0.572,12.365-3.884,15.558,0.863c-2.121,8.083-10.543,5.493-16.425,5.188c-0.289,7.64,12.195,0.84,13.83,2.594
	c-3.681,1.218-6.856,2.936-9.508,5.188c6.663,0.867,13.244-10.097,20.746-6.056c1.344-3.071-2.936-0.522-2.594-2.593
	C59.711,22.58,80.12,18.207,95.77,9.073c-11.122,3.58-30.233,11.259-40.629,15.56c2.658-1.833,4.373-2.849,0.865-5.183
	c3.409-1.109,2.089,2.518,4.317,2.593c-0.753-3,1.333-2.964,2.599-1.729c1.99-2.345-1.646-4.049,0-5.184
	c1.477,0.825,1.738,2.867,3.456,3.458c0.729-4.005,4.455-0.515,5.185-3.458c-1.506-0.799-4.641,0.029-4.319-2.598
	c2.316,2.328,3.285-1.098,5.184-1.726c0.075-3.532-2.365-4.549-4.321-6.051c5.968-0.212,7.146,0.504,11.237,0.86
	c-3.868-4.242-15.521-2.666-20.746-0.86c-0.769,7.106,5.889,6.79,7.778,11.233c-1.825-0.768-2.557-2.629-5.186-2.594
	c-2.129,1.023,1.771,3.269-0.865,4.322c-3.389,1.178-9.021-1.538-10.373,3.458c-3.595,0.138-5.324-1.589-5.184-5.187
	c3.434-2.745,8.342,1.703,10.373,0C52.541,14.853,50.448,13.198,46.5,13.397z"/>
<path fill="transparent" d="M54.28,33.278"/>
<path fill="transparent" d="M14.516,61.807c1.542-4.096,0.58-3.422,3.459-4.321c-0.9-1.981-3.361-2.403-4.322-4.322
	c4.34-1.416,6.602,3.713,9.512,0.864c-3.442-0.628-8.511-3.148-12.102-0.864c-1.344,3.075,2.936,0.521,2.593,2.593
	c-1.34,2.479-4.03-1.801-5.183,0.864c2.405-1.388,2.388,3.734,0.863,3.458c-1.912-0.682-2.164-3.021-3.458-4.322
	c-2.48-0.938-6.433,0.926-3.456,2.598c-0.563-3.379,5.096-1.373,4.317,0.86c-0.685,2.665-4.063,0.443-4.317,1.729
	c3.422,0.829,7.731,0.854,10.372-0.863c-0.194,1.636,0.977,1.904,0.86,3.458c3.411-0.335,3.977-3.517,6.055-5.184
	c0.378,2.495,1.823,3.939,4.322,4.321c0.206-1.235,1.423-1.458,1.727-2.597c-1.187-1.696-5.213-0.547-5.188-3.458
	c5.605-0.698,7.129,2.673,8.646,6.055c3.682,0.516,2.69-3.652,4.321-5.187c0.576,0,1.152,0,1.727,0
	c0.414,2.72-1.231,3.379-1.727,5.187c3.469-0.165,2.433-4.826,3.458-5.187c1.971-0.241,3.249,0.209,3.458,1.726
	c-0.209,1.235-1.426,1.459-1.729,2.597c6.982-2.026-0.02-6.476-2.595-8.645c4.341-0.306,6.603,1.467,9.513,2.594
	c-3.228-0.879-5.896,1.79-2.597,2.597c0.098-1.055,0.26-2.046,1.729-1.729c1.246,0.486,2.106,1.351,2.594,2.593
	c-1.455,2.619-3.883,0.224-5.188,1.729c4.002,2.456,5.331-2.276,8.645,0.863c0.418-1.022,0.922-1.959,1.729-2.597
	c0.04,2.611,3.691,3.774,3.458,0c-4.203,1.033-3.844-2.493-5.188-4.319c1.017-0.137,2.457,0.148,2.594-0.863
	c-4.786-4.333-14.178-1.585-19.883,0c0.808,0.922,3.188,0.267,2.594,2.594C26.161,55.189,19.285,55.179,14.516,61.807z"/>
<path fill="transparent" d="M56.013,55.755c-1.152,0-2.31,0-3.458,0C51.871,59.083,56.689,59.083,56.013,55.755z"/>
<path fill="transparent" d="M4.143,69.128"/>
<path d="M55.145,15.991c-2.027,1.703-6.94-2.745-10.373,0c-0.137,3.598,1.588,5.326,5.184,5.187c1.351-4.996,6.98-2.28,10.373-3.458
	c2.638-1.056-1.265-3.299,0.864-4.322c2.63-0.039,3.364,1.826,5.187,2.594c-1.891-4.444-8.547-4.127-7.778-11.233
	c5.226-1.805,16.877-3.379,20.746,0.86c-4.093-0.359-5.271-1.073-11.238-0.86c1.956,1.502,4.402,2.515,4.322,6.052
	c-1.898,0.631-2.87,4.055-5.184,1.725c-0.32,2.627,2.813,1.798,4.318,2.598c-0.729,2.941-4.455-0.547-5.183,3.458
	c-1.72-0.591-1.981-2.633-3.458-3.458c-1.646,1.135,1.99,2.838,0,5.184c-1.266-1.235-3.351-1.271-2.598,1.729
	c-2.229-0.076-0.908-3.699-4.317-2.595c3.508,2.334,1.793,3.354-0.865,5.185C65.542,20.334,84.65,12.655,95.773,9.073
	c-15.65,9.136-36.059,13.508-51.002,23.341c-0.346,2.071,3.938-0.479,2.594,2.594c-7.503-4.041-14.084,6.923-20.747,6.056
	c2.647-2.252,5.824-3.974,9.509-5.188c-1.635-1.751-14.118,5.046-13.831-2.594c5.883,0.307,14.305,2.896,16.426-5.188
	c-3.195-4.747-13.425-1.438-15.558-0.863c3.922-5.058,15.614-4.838,17.289,2.596c2.201-0.676,4.192-1.569,5.188-3.457
	c-0.735-1.861-2.132-3.063-5.188-2.598c-0.26-3.529,1.195,0.147,3.457-0.859c3.742-2.422-4.033-7.319,2.594-9.514
	C50.448,13.198,52.541,14.853,55.145,15.991z M59.471,8.211c2.282-0.646,7.271-3.044,6.916-3.458
	C62.856,4.681,60.123,5.409,59.471,8.211z M62.928,9.94c2.061,0.832,5.537,2.853,7.78,0.864c0-1.153,0-2.306,0-3.458
	C67.646,5.825,63.504,6.579,62.928,9.94z M37.859,35.009c4.586-4.344,12.488-5.374,16.425-10.373c-2.91,1.4-6.304-0.264-7.78,0.864
	C48.697,31.662,35.979,29.8,37.859,35.009z"/>
<path fill="transparent" d="M46.5,25.5c1.478-1.128,4.874,0.532,7.78-0.864c-3.937,4.999-11.835,6.029-16.425,10.373
	C35.979,29.8,48.697,31.662,46.5,25.5z"/>
<path d="M36.127,56.619c0.596-2.326-1.785-1.671-2.594-2.593c5.706-1.586,15.092-4.334,19.883,0
	c-0.137,1.012-1.578,0.728-2.594,0.863c1.344,1.826,0.984,5.354,5.188,4.318c0.233,3.774-3.418,2.611-3.458,0
	c-0.812,0.638-1.313,1.574-1.729,2.598c-3.313-3.142-4.643,1.588-8.645-0.865c1.305-1.509,3.731,0.888,5.188-1.729
	c-0.485-1.243-1.348-2.107-2.594-2.594c-1.469-0.316-1.631,0.678-1.729,1.729c-3.3-0.807-0.635-3.476,2.598-2.597
	c-2.91-1.128-5.173-2.9-9.514-2.594c2.576,2.172,9.578,6.615,2.595,8.645c0.307-1.135,1.522-1.361,1.729-2.597
	c-0.209-1.521-1.487-1.971-3.457-1.727c-1.026,0.363,0.01,5.024-3.459,5.188c0.498-1.81,2.145-2.471,1.728-5.188
	c-0.573,0-1.149,0-1.728,0c-1.631,1.538-0.641,5.701-4.321,5.188c-1.521-3.379-3.044-6.754-8.645-6.055
	c-0.025,2.909,4.001,1.762,5.187,3.458c-0.307,1.135-1.522,1.36-1.725,2.597c-2.5-0.382-3.945-1.826-4.322-4.322
	c-2.074,1.671-2.641,4.853-6.055,5.184c0.111-1.553-1.056-1.822-0.861-3.457c-2.637,1.722-6.95,1.695-10.373,0.863
	c0.257-1.286,3.635,0.938,4.318-1.729c0.777-2.233-4.881-4.24-4.318-0.861c-2.976-1.671,0.977-3.533,3.457-2.597
	c1.293,1.3,1.546,3.642,3.458,4.322c1.524,0.276,1.542-4.846-0.863-3.458c1.151-2.665,3.844,1.609,5.184-0.864
	c0.346-2.071-3.938,0.481-2.594-2.594c3.591-2.283,8.658,0.237,12.102,0.863c-2.91,2.851-5.172-2.278-9.512-0.863
	c0.965,1.92,3.422,2.342,4.322,4.321c-2.879,0.9-1.916,0.229-3.458,4.322C19.285,55.179,26.161,55.189,36.127,56.619z
	 M50.822,60.077c0-1.148,0-2.306,0-3.458c-2.146,1.124-4.195-1.928-4.322,0C48.939,56.774,47.581,60.726,50.822,60.077z
	 M30.944,60.941c-0.194-1.635,0.976-1.904,0.86-3.456c-1.631,0.193-1.905-0.978-3.457-0.865
	C28.448,58.824,28.513,61.067,30.944,60.941z"/>
<path fill="transparent" d="M46.5,56.619c0.127-1.928,2.177,1.124,4.322,0c0,1.152,0,2.31,0,3.458
	C47.581,60.726,48.939,56.774,46.5,56.619z"/>
</svg>
