<?xml version="1.0" encoding="utf-8"?>
<!-- Generator: Adobe Illustrator 13.0.0, SVG Export Plug-In . SVG Version: 6.00 Build 14948)  -->
<svg version="1.2" baseProfile="tiny" id="Layer_1" xmlns="http://www.w3.org/2000/svg" xmlns:xlink="http://www.w3.org/1999/xlink"
	 x="0px" y="0px"  viewBox="0 0 43.72 18.92" xml:space="preserve">
<g>
	<g>
		<path fill-rule="evenodd" fill="transparent" d="M6.76,6.72c-1.68,0-3.36,0-5.04,0c0-1.6,0-3.2,0-4.8
			c1.443-0.157,3.516,0.316,4.56-0.24C7.306,2.494,6.508,5.132,6.76,6.72z"/>
		<path fill-rule="evenodd" fill="transparent" d="M12.76,1.68c0.339,1.203,0.559,4.191-0.24,5.04c-1.04,0-2.08,0-3.12,0
			c0.716,0.395,1.462,0.566,1.92,0.24c0.883,0.806-1.486,2.078-1.92,3.12C8.463,9.817,7.821,9.26,7,8.88
			c0.243-0.772-0.22-2.281,1.68-1.92C8.577,6.423,7.498,6.863,7,6.72c0.519-1.162,0.11-3.25,0.24-4.8
			C8.76,1.92,10.771,1.826,12.76,1.68z"/>
		<path fill-rule="evenodd" fill="transparent" d="M13.48,1.68c1.865-0.185,2.992,0.368,4.8,0.24c0,1.52,0,3.04,0,4.56
			c-0.694,0.354-3.078,0.211-4.8,0.24c0.677-1.644,2.866-1.773,3.601-3.36c-1.748,0.333-2.354,1.806-3.84,2.4
			C13.167,4.247,13.278,2.918,13.48,1.68z"/>
		<path fill-rule="evenodd" d="M18.041,11.28c0.674-0.889,0.462,1.118,0.479,1.68c-0.654,0.175-0.482-0.478-0.96-0.48
			c-0.826-0.061-4.219,0.18-3.12-0.239c0.48,0,0.96,0,1.44,0c0.791-0.125,1.199-0.359,1.68,0c0.346-0.135,0.586-0.375,0.72-0.721
			C18.325,11.315,18.187,11.293,18.041,11.28z"/>
		<path fill-rule="evenodd" d="M1,12c0.502,0.184,4.348,0.362,2.64,0.479C3.354,12.499,1.628,12.905,1,12z"/>
		<path fill-rule="evenodd" d="M11.321,13.2c0.151,1.112-1.313,0.607-2.161,0.72c0,0.32,0,0.64,0,0.96
			c0.181,0.768,1.775-0.252,1.68,0.24c0.13,0.846-1.938-0.325-1.92,0.96c0.088,0.906,2.037-0.367,2.16,0.96
			c-0.455-0.426-1.585-0.175-2.4-0.24c0-1.04,0-2.08,0-3.12C9.264,13.224,10.688,13.607,11.321,13.2z"/>
		<path fill-rule="evenodd" d="M16.84,14.399c-0.423-0.217-0.396-0.883-0.96-0.96c-1.288-0.158-1.112,2.125-0.72,2.88
			c1.044,0.466,1.328-1.046,1.68-0.479c0.034,0.755-0.615,0.824-1.2,0.96C12.513,16.45,15.927,10.582,16.84,14.399z"/>
		<path fill-rule="evenodd" d="M3.4,13.439c1.109,0.135-0.592,2.543,0.72,2.88c1.715-0.098,0.713-1.512,1.2-2.64
			c0.853,0.152-0.07,1.348,0.24,2.4c-0.575,0.305-0.884,0.876-1.92,0.72C2.989,15.605,3.257,14.691,3.4,13.439z"/>
		<path fill-rule="evenodd" d="M11.8,18c-3.632-0.299-6.878,0.179-10.32,0.239C0.987,17.853,0.924,17.036,1,16.08
			c0.807-0.247,0.374,0.746,0.48,1.199c1.405,0.275,3.089,0.271,4.8,0.24c0.581-3.354,0.174-7.692,0.48-10.08
			C5.637,6.883,3.483,7.357,1.96,7.2c-0.725,1.973-0.167,2.789-0.48,3.84c-0.52,1.744-0.322-2.381-0.24-0.72
			C1.092,7.294,1.631,3.741,1,1.68C7.635,1.135,13.8,1.573,18.76,1.2c-0.317,2.544,0.112,4.038-0.24,6.479
			c-0.104,0.786,0.243,3.269-0.24,2.88c0-1.12,0-2.24,0-3.36c-1.55-0.129-3.638,0.279-4.8-0.24
			c-0.394,4.234-0.377,5.986-0.479,10.56c1.333,0.176,2.769,0.044,4.56,0c0.932-0.95-0.111-2.276,0.48-3.12
			c0.605,0.754-0.082,2.802,0.479,3.601c-2.163-0.077-4.683,0.202-6.479-0.24c0.803-3.427,0.678-7.086,0.96-10.56
			c-1.41,1.07-2.694,2.267-3.12,4.32c-1.208-0.231-1.555-1.325-2.64-1.68c-0.437,2.156-0.257,5.824-0.48,7.439
			C8.555,18.093,10.864,17.01,11.8,18z M6.28,1.68c-1.044,0.556-3.117,0.083-4.56,0.24c0,1.6,0,3.2,0,4.8c1.68,0,3.36,0,5.04,0
			C6.508,5.132,7.306,2.494,6.28,1.68z M7.24,1.92C7.111,3.47,7.519,5.558,7,6.72c0.497,0.143,1.577-0.296,1.68,0.24
			C6.78,6.599,7.244,8.108,7,8.88c0.82,0.38,1.463,0.937,2.4,1.2c0.435-1.042,2.803-2.314,1.92-3.12
			c-0.458,0.326-1.205,0.154-1.92-0.24c1.04,0,2.08,0,3.12,0c0.799-0.849,0.579-3.836,0.24-5.04C10.771,1.826,8.76,1.92,7.24,1.92z
			 M13.241,5.76c1.485-0.594,2.092-2.067,3.84-2.4c-0.734,1.586-2.924,1.716-3.601,3.36c1.722-0.028,4.105,0.114,4.8-0.24
			c0-1.52,0-3.04,0-4.56c-1.808,0.128-2.935-0.425-4.8-0.24C13.278,2.918,13.167,4.247,13.241,5.76z"/>
		<path fill-rule="evenodd" fill="transparent" d="M19.72,0c0,6.56,0,13.12,0,19.68c-6.56,0-13.12,0-19.68,0
			C0.2,13.199-0.279,6.08,0.281,0C6.76,0,13.241,0,19.72,0z M6.76,17.279c0.223-1.615,0.043-5.283,0.48-7.439
			c1.085,0.355,1.432,1.448,2.64,1.68C10.307,9.466,11.59,8.27,13,7.2c-0.282,3.474-0.157,7.133-0.96,10.56
			c1.797,0.442,4.316,0.163,6.479,0.24c-0.562-0.799,0.126-2.847-0.479-3.601c-0.592,0.844,0.451,2.17-0.48,3.12
			c-1.791,0.044-3.227,0.176-4.56,0c0.103-4.573,0.086-6.325,0.479-10.56c1.162,0.519,3.25,0.11,4.8,0.24c0,1.12,0,2.24,0,3.36
			c0.483,0.389,0.136-2.094,0.24-2.88c0.353-2.441-0.077-3.935,0.24-6.479C13.8,1.573,7.635,1.135,1,1.68
			c0.63,2.061,0.091,5.614,0.24,8.64c-0.082-1.661-0.28,2.464,0.24,0.72C1.794,9.988,1.236,9.172,1.96,7.2
			c1.522,0.158,3.676-0.316,4.8,0.24c-0.306,2.387,0.101,6.726-0.48,10.08c-1.711,0.031-3.395,0.035-4.8-0.24
			C1.374,16.826,1.807,15.833,1,16.08c-0.077,0.956-0.013,1.772,0.48,2.159C4.922,18.179,8.168,17.701,11.8,18
			C10.864,17.01,8.555,18.093,6.76,17.279z M18.28,11.52c-0.134,0.346-0.374,0.586-0.72,0.721c-0.48-0.359-0.889-0.125-1.68,0
			c-0.48,0-0.96,0-1.44,0c-1.099,0.419,2.294,0.179,3.12,0.239c0.478,0.003,0.306,0.655,0.96,0.48
			c-0.018-0.562,0.194-2.569-0.479-1.68C18.187,11.293,18.325,11.315,18.28,11.52z M3.641,12.479C5.349,12.362,1.502,12.184,1,12
			C1.628,12.905,3.354,12.499,3.641,12.479z M8.68,13.68c0,1.04,0,2.08,0,3.12c0.815,0.065,1.946-0.186,2.4,0.24
			c-0.123-1.327-2.072-0.054-2.16-0.96c-0.018-1.285,2.05-0.114,1.92-0.96c0.095-0.492-1.499,0.527-1.68-0.24c0-0.32,0-0.64,0-0.96
			c0.848-0.112,2.312,0.393,2.161-0.72C10.688,13.607,9.264,13.224,8.68,13.68z M15.64,16.8c0.585-0.136,1.234-0.205,1.2-0.96
			c-0.352-0.566-0.636,0.945-1.68,0.479c-0.393-0.755-0.568-3.038,0.72-2.88c0.563,0.077,0.537,0.743,0.96,0.96
			C15.927,10.582,12.513,16.45,15.64,16.8z M3.641,16.8c1.036,0.156,1.345-0.415,1.92-0.72c-0.311-1.053,0.612-2.248-0.24-2.4
			c-0.487,1.128,0.516,2.542-1.2,2.64c-1.313-0.337,0.389-2.745-0.72-2.88C3.257,14.691,2.989,15.605,3.641,16.8z"/>
	</g>
</g>
</svg>
