<?xml version="1.0" encoding="utf-8"?>
<!-- Generator: Adobe Illustrator 13.0.0, SVG Export Plug-In . SVG Version: 6.00 Build 14948)  -->
<!DOCTYPE svg PUBLIC "-//W3C//DTD SVG 1.1//EN" "http://www.w3.org/Graphics/SVG/1.1/DTD/svg11.dtd">
<svg version="1.1" id="Layer_1" xmlns="http://www.w3.org/2000/svg" xmlns:xlink="http://www.w3.org/1999/xlink" x="0px" y="0px"
	 width="544.587px" height="413.547px" viewBox="0 0 544.587 413.547" enable-background="new 0 0 544.587 413.547"
	 xml:space="preserve">
<polygon fill="#354599" points="238.524,250.197 179.114,281.141 179.114,178.562 238.524,166.185 "/>
<polygon fill="#354599" points="111.785,250.197 171.191,281.141 171.191,178.562 111.785,166.185 "/>
<polygon fill="#FFFFFF" points="175.171,154.058 226.337,161.44 175.171,172.083 124.077,161.44 "/>
<polygon fill="#231F20" points="156.427,165.22 190.919,158.744 201.806,160.786 168.841,167.397 "/>
<polygon fill="#FABE17" points="218.971,121.015 177.146,163.243 151.649,137.747 193.473,95.517 "/>
<g>
	<defs>
		<rect id="SVGID_1_" width="544.587" height="413.547"/>
	</defs>
	<clipPath id="SVGID_2_">
		<use xlink:href="#SVGID_1_"  overflow="visible"/>
	</clipPath>
	<path clip-path="url(#SVGID_2_)" fill="#354599" d="M413.686,268.219c-2.453,0-4.507-0.844-6.15-2.531
		c-1.646-1.684-2.469-3.742-2.469-6.168c0-2.486,0.81-4.555,2.428-6.213c1.619-1.66,3.683-2.49,6.191-2.49
		c2.481,0,4.567,0.83,6.254,2.49c1.687,1.658,2.528,3.727,2.528,6.213c0,2.482-0.842,4.551-2.528,6.209
		C418.253,267.391,416.167,268.219,413.686,268.219 M413.686,256.807c-1.779,0-2.671,0.9-2.671,2.713
		c0,1.834,0.892,2.752,2.671,2.752c1.86,0,2.795-0.918,2.795-2.752C416.48,257.707,415.546,256.807,413.686,256.807"/>
	<path clip-path="url(#SVGID_2_)" fill="#354599" d="M394.869,279.672c-2.16,0-3.238-1.32-3.238-3.965v-29.988h6.636v27.154h6.799
		v6.799H394.869z"/>
	<path clip-path="url(#SVGID_2_)" fill="#354599" d="M394.869,201.364c-4.695,0-8.654-1.635-11.88-4.897
		c-3.225-3.264-4.836-7.271-4.836-12.019c0-4.751,1.625-8.735,4.875-11.959c3.252-3.226,7.255-4.839,12-4.839
		c4.748,0,8.69,1.613,11.819,4.839c3.128,3.224,4.693,7.208,4.693,11.959c0,4.586-1.633,8.551-4.897,11.897
		C403.379,199.689,399.455,201.364,394.869,201.364 M394.869,174.33c-2.97,0-5.384,0.943-7.246,2.833
		c-1.861,1.888-2.789,4.315-2.789,7.285c0,2.832,0.928,5.173,2.789,7.02c1.862,1.851,4.196,2.772,7.002,2.772
		c2.94,0,5.336-0.896,7.183-2.689c1.848-1.796,2.772-4.162,2.772-7.103c0-2.916-0.884-5.33-2.65-7.243
		C400.162,175.288,397.808,174.33,394.869,174.33"/>
	<path clip-path="url(#SVGID_2_)" fill="#354599" d="M394.939,246.125c-6.638,0-12.08-2.139-16.328-6.418
		c-4.25-4.274-6.375-9.731-6.375-16.369c0-6.583,2.125-12,6.375-16.247c4.248-4.25,9.69-6.375,16.328-6.375
		c6.637,0,12.082,2.112,16.332,6.336c4.245,4.222,6.37,9.648,6.37,16.286s-2.137,12.095-6.414,16.369
		C406.953,243.986,401.523,246.125,394.939,246.125 M382.595,213.626c-2.317,2.996-3.478,6.231-3.478,9.712
		c0,3.022,0.824,5.843,2.468,8.461c2.374-2.104,3.872-5.007,4.493-8.702C385.753,219.428,384.593,216.27,382.595,213.626
		 M394.939,207.595c-2.859,0-5.57,0.744-8.136,2.229c3.373,3.693,5.086,8.198,5.142,13.514c-0.541,5.234-2.658,9.537-6.354,12.912
		c2.808,1.994,5.922,2.993,9.349,2.993c4.586,0,8.397-1.502,11.432-4.512c3.037-3.011,4.554-6.805,4.554-11.394
		c0-4.532-1.517-8.288-4.554-11.271C403.337,209.086,399.525,207.595,394.939,207.595"/>
	<path clip-path="url(#SVGID_2_)" fill="#354599" d="M358.89,220.506c-2.592,0-4.7-0.83-6.334-2.489
		c-1.633-1.658-2.448-3.785-2.448-6.376c0-2.479,0.83-4.565,2.487-6.249c1.66-1.688,3.759-2.531,6.295-2.531
		c2.48,0,4.552,0.843,6.212,2.531c1.659,1.684,2.487,3.771,2.487,6.249c0,2.591-0.813,4.718-2.446,6.376
		C363.509,219.676,361.425,220.506,358.89,220.506 M358.89,244.461c-2.592,0-4.7-0.811-6.334-2.447
		c-1.633-1.631-2.448-3.742-2.448-6.331c0-2.482,0.83-4.581,2.487-6.293c1.66-1.713,3.759-2.571,6.295-2.571
		c2.535,0,4.619,0.831,6.253,2.49c1.633,1.658,2.446,3.783,2.446,6.374c0,2.589-0.813,4.7-2.446,6.331
		C363.509,243.65,361.425,244.461,358.89,244.461 M358.89,208.81c-1.78,0-2.674,0.944-2.674,2.831c0,1.783,0.894,2.674,2.674,2.674
		c1.89,0,2.832-0.891,2.832-2.674C361.722,209.754,360.779,208.81,358.89,208.81 M358.89,232.93c-1.78,0-2.674,0.919-2.674,2.753
		c0,1.888,0.894,2.831,2.674,2.831c1.89,0,2.832-0.943,2.832-2.831C361.722,233.849,360.779,232.93,358.89,232.93"/>
	<path clip-path="url(#SVGID_2_)" fill="#354599" d="M322.414,246.125c-6.8,0-12.324-2.102-16.572-6.297
		c-4.25-4.191-6.375-9.692-6.375-16.49c0-9.335,4.426-16.159,13.272-20.478l4.293,5.22c-7.125,4.371-10.685,9.458-10.685,15.258
		c0,4.692,1.503,8.52,4.511,11.475c3.01,2.955,6.862,4.431,11.556,4.431c4.479,0,8.221-1.52,11.229-4.551
		c3.009-3.039,4.513-6.819,4.513-11.354c0-5.691-3.56-10.751-10.683-15.176l4.736-5.058l1.981,1.012
		c7.123,3.534,10.685,9.941,10.685,19.222c0,6.691-2.084,12.162-6.254,16.412C334.452,243.996,329.051,246.125,322.414,246.125"/>
	<path clip-path="url(#SVGID_2_)" fill="#354599" d="M287.602,218.524c-4.237-7.394-9.432-11.091-15.583-11.091
		c-4.587,0-8.356,1.491-11.31,4.472c-2.953,2.982-4.43,6.766-4.43,11.354c0,6.8,3.264,11.709,9.793,14.731
		c0.54-6.503,3.412-11.172,8.622-14.005c2.534-1.429,5.272-2.144,8.214-2.144c2.86,0,5.233,0.688,7.12,2.064
		c2.08,1.483,3.117,3.613,3.117,6.394c0,1.755-1.067,4.128-3.197,7.123c-4.153,5.69-10.13,8.54-17.929,8.54
		c-6.688,0-12.144-2.113-16.368-6.335c-4.223-4.223-6.334-9.678-6.334-16.369c0-6.693,2.111-12.135,6.334-16.33
		c4.224-4.194,9.68-6.293,16.368-6.293c8.85,0,15.987,4.881,21.412,14.651L287.602,218.524z M282.219,228.479
		c-3.104,0-5.673,0.988-7.709,2.974c-2.038,1.983-3.11,4.499-3.218,7.546h0.727c4.938,0,8.971-1.684,12.102-5.059
		c0.459-0.834,1.065-1.751,1.823-2.75c0.104-0.434,0.16-0.756,0.16-0.97C286.104,229.061,284.809,228.479,282.219,228.479"/>
	<polygon clip-path="url(#SVGID_2_)" fill="#FABE17" points="221.857,201.792 189.957,194.567 193.173,186.513 225.38,193.415 	"/>
	<path clip-path="url(#SVGID_2_)" fill="#FABE17" d="M209.288,253.598c-6.435,1.703-11.661,0.988-15.683-2.143
		c-4.021-3.133-6.032-8.098-6.032-14.898c0-9.333,4.187-17.268,12.562-23.798l4.06,4.146c-6.741,6.152-10.11,12.129-10.11,17.93
		c0,3.537,0.944,6.431,2.833,8.683c3.446-4.823,7.57-7.979,12.37-9.464c4.722-1.358,8.986-0.773,12.79,1.757
		c1.405-2.936,2.107-5.912,2.107-8.936c0-5.693-3.371-9.859-10.111-12.503l4.482-6.24l1.875,0.512
		c6.74,1.752,10.111,7.271,10.111,16.551c0,6.692-1.972,12.684-5.917,17.974C220.68,248.463,215.569,251.939,209.288,253.598
		 M209.364,239.736c-3.446,1.4-6.216,3.629-8.311,6.693c2.58,0.961,5.324,1.059,8.235,0.291c3.191-0.846,6.204-2.801,9.037-5.873
		C215.926,239.435,212.938,239.063,209.364,239.736"/>
</g>
</svg>
